<mxfile host="app.diagrams.net" modified="2024-06-20T04:40:45.040Z" agent="Mozilla/5.0 (Macintosh; Intel Mac OS X 10_15_7) AppleWebKit/605.1.15 (KHTML, like Gecko) Version/17.5 Safari/605.1.15" version="24.5.5" etag="GNnD15cJIVYe7SYoOaq-" type="github">
  <diagram name="Page-1" id="s46l4YaFh0mfcno91nL7">
    <mxGraphModel>
      <root>
        <mxCell id="0" />
        <mxCell id="1" parent="0" />
      </root>
    </mxGraphModel>
  </diagram>
</mxfile>
